<?xml version="1.0" ?><svg style="enable-background:new 0 0 48 48;" version="1.1" viewBox="0 0 48 48" xml:space="preserve" xmlns="http://www.w3.org/2000/svg" xmlns:xlink="http://www.w3.org/1999/xlink"><g id="Layer_2"/><g id="Layer_1"><g><path d="M17.5071,21.92125c0,0-0.22068,1.03439,0.17129,3.52719s0.39197,2.89914,0.39197,2.89914h0.27622    c0,0,0.21142,1.43909,0.39338,2.55527c0.18196,1.11618,0.30739,1.31905,0.17132,1.87055s-0.16597,0.84923-0.59692,0.99484    c-0.43095,0.14561-0.82838,0.00534-0.6547,0.3696c0.17368,0.36425,0.24087,0.62434,0.24087,0.62434    s0.36249-0.3637,1.15823-0.27823c0.24538,0.02635,1.36391,0.21276,2.01353,0.19439    c0.64961-0.01836,1.05621-0.06865,1.05621-0.06865l0.35639-0.17393c0,0,0.15103-0.85078-0.11852-1.57947    c0,0,0.21249-0.17683,0.18047-0.35912c-0.03202-0.18229-0.35497-1.11723-0.35497-1.11723l0.211-0.16686    c0,0,0.21482-0.58928,0.22107-1.27382c0.00625-0.68454,0.56604-2.88145-0.28949-3.43068    C21.47892,25.95935,17.5071,21.92125,17.5071,21.92125z" style="fill:#876D5F;"/><path d="M27.89539,27.34285c0,0,0.02794,0.54042,0.14475,1.19572s0.16584,0.91748,0.03325,1.30135    s-0.18742,0.42908,0.03553,0.39376s0.2756-0.06649,0.26141,0.31287c-0.01419,0.37936,0.16958,1.49413-0.0212,1.97508    c-0.19077,0.48096-0.04244,0.46348-0.13144,0.75785s-0.33805,0.47391-0.3223,0.93907s-0.08078,0.23066,0.5806,0.3133    c0.66138,0.08264,1.9176,0.0377,2.18027,0c0.26268-0.0377,0.76705,0.15274,0.8602-0.90582    c0.09315-1.05856,0.18326-1.74084,0.18326-1.74084l0.18678-0.17724c0,0,0.24799-0.66742,0.28222-1.23401    c0.03423-0.5666-0.11065-0.53227,0.06562-0.62593c0.17627-0.09366,0.30483,0.11867,0.37405-0.20767    s0.28678-1.00867,0.36589-1.53279c0.07911-0.52411-0.025-0.3136,0.05178-0.7647S28.85865,26.8946,27.89539,27.34285z" style="fill:#876D5F;"/><path d="M39.52592,30.68785c0.04999,0.21997-0.17999-0.12-0.16998,0.09003    c0.02002,0.20996-0.08002,1.09998-0.06,1.83997c0.01996,0.73999-0.16998,1.17999-0.22003,1.75    c-0.03998,0.57001-0.42999,0.44-0.90997,0.45001c-0.47003,0-0.85004-0.07001-1.14001-0.12s-0.47998,0.09998-0.47998,0.09998    s-0.08002-0.13-0.38-0.12c-0.31,0.01001-0.41003,0.13-0.46002-0.12s-0.59998-0.07001-0.33997-0.28998    c0.26001-0.22003,0.62-0.21002,0.75-0.42999c0.13-0.21002-0.01001-0.91003-0.19-1.41003c-0.17999-0.5-0.25-0.95001-0.38-1.14002    c-0.12-0.19995-0.66998-0.82996-0.91998-1.41998c-0.26001-0.59998-0.34003-0.39996-0.62006-0.44    c-0.21997-0.02997-0.38995-0.53998-0.77997-1.23999s-0.16998-1.71997-0.33002-1.19c-0.15997,0.52002-0.25,0.47003-0.78998,0.94    c-0.54999,0.46997-0.88,0.71002-1.16998,0.70001c-0.29004-0.01001-0.40002-0.13-0.40002-0.13s0,0-0.08002,0.12    c-0.08997,0.12-0.13,0.20001-0.81-0.03998c-0.67999-0.24005-1.5-0.49005-2.08997-0.72003    c-0.01001,0-0.01001-0.01001-0.02002-0.01001c-0.03003-0.01001-0.06-0.01996-0.09003-0.03998    c-0.26996-0.12-0.38-0.23999-0.42999-0.31l0.46002,1.70001l-0.22998,0.21997c0,0-0.08002,0.09003,0.01996,0.5    c0.10004,0.41003,0.32001,1.28003,0.32001,1.28003h-0.25c0,0-0.13,0.69995,0,1.26996c0.13,0.57001,0.37,0.95001,0.47003,1.16003    c0.09998,0.21997,0.08997,0.67999,0,1.08002c-0.09003,0.38995-0.32001,0.19995-1.03003,0.22998    c-0.71002,0.02997-1.79999-0.12-2.28998-0.20001c-0.48999-0.07001-0.57001,0.12-0.63,0.06    c-0.06-0.04999-0.17999-0.06-0.33002-0.10999c-0.14001-0.06-0.45001,0.21997-0.41998-0.03003    c0.02002-0.26001-0.01001-0.45996-0.01001-0.45996l0.60999-0.20001c0,0-0.04999-0.08002-0.19-0.41003    c-0.14996-0.33997-0.46997-1.63996-0.70996-2.64997c-0.24005-1.02002-0.42004-2.04004-0.42004-2.04004l-0.26996,0.10004    c0,0,0.07996-0.33002,0.06-0.82001c-0.02002-0.47998-0.59003-1.69-1.13-2.31c-0.54004-0.62-1-1.22998-1.78003-1.97003    c-0.77997-0.75-1.38-1.12994-1.70996-1.34998c-0.17004-0.12-0.45001-0.32001-0.77002-0.48999    c-0.28998-0.15002-0.60999-0.28003-0.91998-0.32001c-0.66003-0.07001-1.39001-0.06-1.39001-0.06l-0.04999,0.38    c-0.13-0.28003-1.40002-0.82001-1.40002-0.82001l-0.20001,0.45001c0,0-0.15997-0.20001-0.54999-0.47003    c-0.39001-0.26996-0.58002-0.12-1.34998-0.17999c-0.77002-0.04999-1-0.32996-1.22003-0.46997    c-0.21997-0.14001-0.39996-0.13-0.76001-0.28003c-0.40997-0.19-0.48999-1.01996-0.48999-1.01996l0.42004-0.73004    c0,0,0.12994-0.01996,0.37994-0.10999c0.24005-0.09003,0.55005-0.48999,1.11005-0.92999    c0.57001-0.45001,0.66998-0.47003,0.88-0.94c0.20996-0.46002,0.52997-0.78003,1-1.17999    c0.47998-0.40002,1.53998-0.78003,1.53998-0.78003c-0.20001-0.66998,0.28998-1.39996,0.28998-1.39996s0.5,0.07001,0.80005,0.28998    c0.29999,0.22003,0.51996,0.52002,0.51996,0.52002s0.29999-0.07001,0.62,0.02997c0.32001,0.09003,0.71002,0.39001,1.15002,0.45001    s1.5,0.44,1.95001,0.48999c0.45996,0.04999,0.46997,0.03003,0.98999-0.08002c0.52997-0.12,0.70996-0.14996,1.10999-0.33997    c0.41003-0.17999,0.72998-0.25,0.72998-0.25l-0.03998,0.35999c0,0,0.04999,0.04999,0.25,0.07001    c0.21002,0.03003,0.72003,0.10999,1.13,0.22003c0.41998,0.10999,0.52997,0.34998,0.58002,0.38995    c0.23999,0.15002,0.51996,0.42999,0.73999,0.53003c0.20996,0.09998,0.33997,0.17999,0.60999,0.19h0.07001    c0.32001-0.02002,0.94,0.04999,1.37-0.01001c0.59003-0.07001,1.79999-0.22003,2.5-0.5    c0.70001-0.28003,0.88-0.16003,1.65997-0.17999c0.78003-0.02002,1.27002,0.26996,1.19,0.32001    c-0.07996,0.03998-0.20996,0.12-0.00995,0.16998c0.19995,0.06,0.82996,0.5,1.10999,0.64001    c0.13,0.07001,0.33997,0.20001,0.58002,0.33997h0.00995c0.25,0.15002,0.54004,0.31,0.78003,0.40002    c0.46997,0.16998,0.76001,0.57001,1.02002,0.96002c0.26996,0.39996,0.79999,1.00995,1.06,1.59998    c0.25995,0.59998,0.62,1.14001,0.77997,1.64001c0.16998,0.5,0.42999,1.16998,0.63,1.82001    c0.10999,0.39996,0.22998,0.69995,0.34003,1.08997c0.07001,0.25,0.13995,0.54999,0.21997,0.94c0.19,1,0.62,1.96002,0.62,1.96002    s-0.16998,0.04999-0.12,0.31c0.06,0.26996,0.12,1.27997,0.26001,1.84998S39.46592,30.45786,39.52592,30.68785z" style="fill:#BC9C84;"/><g><path d="M33.68596,16.85783c-1.59003-0.62-3.59003-0.35999-4.5,0.10004     c-0.90002,0.45996-0.94,0.20996-1.17004,0.91998c-0.23999,0.70001-0.35999,0.26001-0.71997,0.75s-0.19,0.53998-0.67999,0.69     c-0.5,0.15002-0.58002,0.45001-0.58002,0.45001c0.06-0.44,0.19-0.70001,0.40002-1.14001     c0.20996-0.42999-0.15002-0.47003-0.26001-0.81c-0.12-0.33002-0.11005-0.41998-0.48999-1.07001     c-0.22003-0.38-0.37006-0.57001-0.47003-0.66998h0.07001c0.32001-0.02002,0.94,0.04999,1.37-0.01001     c0.59003-0.07001,1.79999-0.22003,2.5-0.5c0.70001-0.28003,0.88-0.16003,1.65997-0.17999     c0.78003-0.02002,1.27002,0.26996,1.19,0.32001c-0.07996,0.03998-0.20996,0.12-0.00995,0.16998     c0.19995,0.06,0.82996,0.5,1.10999,0.64001C33.23594,16.58787,33.4459,16.71787,33.68596,16.85783z" style="fill:#9B7E6B;"/><path d="M39.52592,30.68785c0.04999,0.21997-0.17999-0.12-0.16998,0.09003     c0.02002,0.20996-0.08002,1.09998-0.06,1.83997c0.01996,0.73999-0.16998,1.17999-0.22003,1.75     c-0.03998,0.57001-0.42999,0.44-0.90997,0.45001c-0.47003,0-0.85004-0.07001-1.14001-0.12s-0.47998,0.09998-0.47998,0.09998     s-0.08002-0.13-0.38-0.12c-0.31,0.01001-0.41003,0.13-0.46002-0.12s-0.59998-0.07001-0.33997-0.28998     c0.26001-0.22003,0.62-0.21002,0.75-0.42999c0.13-0.21002-0.01001-0.91003-0.19-1.41003c-0.17999-0.5-0.25-0.95001-0.38-1.14002     c-0.12-0.19995-0.66998-0.82996-0.91998-1.41998c-0.26001-0.59998-0.34003-0.39996-0.62006-0.44     c-0.21997-0.02997-0.38995-0.53998-0.77997-1.23999s-0.16998-1.71997-0.33002-1.19c-0.15997,0.52002-0.25,0.47003-0.78998,0.94     c-0.54999,0.46997-0.88,0.71002-1.16998,0.70001c-0.29004-0.01001-0.40002-0.13-0.40002-0.13s0,0-0.08002,0.12     c-0.08997,0.12-0.13,0.20001-0.81-0.03998c-0.67999-0.24005-1.5-0.49005-2.08997-0.72003     c-0.01001,0-0.01001-0.01001-0.02002-0.01001c-0.03003-0.01001-0.06-0.01996-0.09003-0.03998     c-0.00995-0.03003-0.01996-0.06-0.01996-0.09003c-0.14001-0.75995-0.52002-1.38-0.60004-1.88995     c-0.07001-0.51001-0.14996-2.54004-0.27997-3.01001c0,0,0.70996-0.06,0.89996,1.26001c0.18005,1.31995,0.36005,1.44,1.13,1.88995     c0.78003,0.46002,0.78003,0.55005,2,0.30005c1.23004-0.25,1.37,0.02997,2.28003-0.93005     c0.84998-0.89996,2.01001-2.41998,2.14996-2.58997c-0.06,0.27002-0.54999,2.46997-0.64996,3.70001     c-0.12,1.32001-0.21002,0.53998,0.27002,1.58997c0.47998,1.04999,1.58997,1.57001,1.95996,2.79004     c0.35999,1.20996,0.22003,1.62,0.79004,1.79999c0.56995,0.17999,0.65997,0.72998,0.89996,0     c0.23999-0.72003,0.31-0.47003,0.38-1.51001c0.06-1.03003-0.12-2.22003-0.15997-3.66998     c-0.05005-1.46002-0.22003-3.09003-0.22003-3.09003h0.03003c0.07001,0.25,0.13995,0.54999,0.21997,0.94     c0.19,1,0.62,1.96002,0.62,1.96002s-0.16998,0.04999-0.12,0.31c0.06,0.26996,0.12,1.27997,0.26001,1.84998     S39.46592,30.45786,39.52592,30.68785z" style="fill:#9B7E6B;"/><path d="M27.80595,34.71788c-0.09003,0.38995-0.32001,0.19995-1.03003,0.22998     c-0.71002,0.02997-1.79999-0.12-2.28998-0.20001c-0.48999-0.07001-0.57001,0.12-0.63,0.06     c-0.06-0.04999-0.17999-0.06-0.33002-0.10999c-0.14001-0.06-0.45001,0.21997-0.41998-0.03003     c0.02002-0.26001-0.01001-0.45996-0.01001-0.45996l0.60999-0.20001c0,0-0.04999-0.08002-0.19-0.41003     c-0.14996-0.33997-0.46997-1.63996-0.70996-2.64997c-0.24005-1.02002-0.42004-2.04004-0.42004-2.04004l-0.26996,0.10004     c0,0,0.07996-0.33002,0.06-0.82001c-0.02002-0.47998-0.59003-1.69-1.13-2.31c-0.54004-0.62-1-1.22998-1.78003-1.97003     c-0.77997-0.75-1.38-1.12994-1.70996-1.34998c-0.17004-0.12-0.45001-0.32001-0.77002-0.48999     c0.16998-0.06,0.40997-0.10999,0.71997-0.15002c0.38-0.03998,2.64001,1.23999,3.74005,2.64001     c1.09998,1.41003,1.79999,2.51001,2.25,4.06c0.44995,1.54999,0.69,3.03998,1.28998,3.73999     c0.59998,0.71002,0.57001,0.34003,1.12,0.54004c0.54999,0.19,0.58002-0.67999,0.71002-1.52002     c0.12-0.84998,0.17999-0.42999,0-1.47003c-0.19-1.03998-0.08002-0.57996-0.11005-1.62994     c-0.02997-1.04004-0.44995-1.06-0.25-1.66003c0.20001-0.58997,0.49005-2.84998,0.36005-3.54999c0,0,0.46997,2.20001,0.82996,4.75     c0.02514,0.21817-0.30253-0.31108-0.27511-0.087c0.00526,0.04297,0.18749,1.01662,0.19231,1.06007     c0.06576,0.55501-0.01663,0.73645-0.00641,1.13838c0.01879,0.7386,0.19304,0.62665,0.15875,1.09431     c-0.00895,0.12203-0.10248,1.05765-0.10756,1.17491c-0.01966,0.45335,0.24747,0.85138,0.39806,1.43934     C27.90593,33.85783,27.89592,34.31785,27.80595,34.71788z" style="fill:#9B7E6B;"/><path d="M18.3159,21.48783c-0.18994,0.42999-0.62994,1.04999-1.16998,0.72003     c-0.5-0.31-1.25-0.57001-2.13001-0.63c0.29004-0.01001,0.81-0.16003,1.26001-0.87     c0.67999-1.08002,0.39001-0.66003,0.53998-2.08002c0.14001-1.40997,0.44-0.16998,0.39001-1.32001s0.35999-0.79999,0.23999-1.31     c-0.12-0.52002,0.21002,0.08002,0.52002,1.04999c0.31,0.97003,0.22003,0.73999,0.56,1.94     C18.86595,20.18785,18.49595,21.05784,18.3159,21.48783z" style="fill:#9B7E6B;"/></g><path d="M10.30233,17.48335c0,0,0.29616,0.04466,0.65425,0.9525s0.5159,0.75838,0.56055,1.18133    c0.04465,0.42295,0.19779,1.41419-0.72187,1.32085c-0.91966-0.09334-1.27678-0.40337-1.57928-0.58796    c-0.3025-0.18458-1.06246-0.62969-0.6298-1.27108c0.43266-0.64139,0.7739-0.66972,1.08643-0.96737    S10.30233,17.48335,10.30233,17.48335z" style="fill:#E5C8AC;"/><g><path d="     M13.73196,14.49135c0,0-1.9031,0.8171-2.3073,1.7323c0,0-0.2334,0.6942-0.6903,0.94538     c-0.457,0.25132-1.4165,1.27112-2.0106,1.419c0,0-0.792,0.36942-0.1675,0.91632c0,0,0.198,0.813,0.7768,0.8721     c0,0,0.853-0.1626,1.2337-0.3696c0.3809-0.2069,0.8835-0.07382,0.8835-0.07382" style="fill:none;stroke:#303030;stroke-width:0.5;stroke-linecap:round;stroke-linejoin:round;stroke-miterlimit:10;"/><path d="     M9.59196,20.37645c0,0.0591,0.7769,0.5764,1.2033,0.56158c0,0,0.9748-0.04438,1.2033,0.14782c0,0,0.7768,0.32518,0.8987,0.606     c0,0,0.198-0.4434,0.0761-0.5469c0,0,1.3708,0.6356,1.5232,0.9164v-0.5025c0,0,1.7059,0.0591,2.1019,0.3104     c0.396,0.2512,2.1172,1.2415,2.894,2.1874c0,0,2.5669,3.4151,2.6534,4.0023v0.9439l0.2377-0.2936c0,0,0.8863,4.7403,1.405,5.3067     " style="fill:none;stroke:#303030;stroke-width:0.5;stroke-linecap:round;stroke-linejoin:round;stroke-miterlimit:10;"/><path d="     M26.54636,22.82935c0.4458,0.7444,0.197,2.5653,0.197,2.5653c0,0.5433,0.705,1.89138,0.705,1.89138     c-0.1762-0.03018-0.4873-0.19108-0.4873-0.19108c0.0829,0.4526,0.5702,2.1529,0.5702,2.1529s-0.2695-0.1207-0.2591,0.1106     c0.0103,0.2314,0.3213,1.8813,0.3213,1.8813l-0.2177-0.2113c0,0-0.2073,1.6298,0.2592,2.1932     c0.4666,0.5633,0.1866,1.2876,0.0726,1.5392c-0.1141,0.2515-2.7785,0.0201-3.1932-0.0805     c-0.4147-0.1006-0.6738,0.2113-0.6738,0.2113c-0.1141-0.171,0.114-0.3723,0.114-0.3723     c-0.2384-0.0402-0.9228,0.3723-0.9228,0.3723c-0.0932-0.1509,0.2282-0.4427,0.2282-0.4427     c-0.197-0.0402-0.8813,0.2717-0.8813,0.2717c0.0623-0.7043,1.3063-0.7747,1.3063-0.7747" style="fill:none;stroke:#303030;stroke-width:0.5;stroke-linecap:round;stroke-linejoin:round;stroke-miterlimit:10;"/><path d="     M27.07496,27.58245c0,0,2.6218,1.1653,3.4345,1.0183l0.0689-0.24072c0,0,0.248,0.21392,0.7576,0.12032     c0,0,1.2398-0.7619,1.7495-1.858" style="fill:none;stroke:#303030;stroke-width:0.5;stroke-linecap:round;stroke-linejoin:round;stroke-miterlimit:10;"/><path d="     M35.04146,22.55885c0,0-0.1102,1.28318-0.7989,1.8446c-0.6888,0.5614-1.5015,2.6065-1.0194,3.6492     c0,0,0.551,1.10938,0.8954,1.3901l0.124-0.3208c0,0,0.7989,1.6843,1.1984,2.0452c0.3995,0.36088,1.0469,2.3125,0.551,2.7402     c0,0-1.2535,0.2406-1.1984,0.8555c0,0,0.7025-0.3475,0.9367-0.2807c0,0-0.0689,0.10688-0.0138,0.2807     c0,0,0.5372-0.2807,0.8403-0.2807c0,0-0.1791,0.1738,0,0.36088c0,0,0.2479-0.36088,0.7163-0.254     c0.4684,0.107,1.5015,0.30752,1.7219,0c0,0,0.172-0.98458,0.2755-1.53718c0.0275-0.147,0.1791-1.8045,0.0964-2.5531     l0.3168,0.2005l-0.4546-1.35c0,0-0.1377-1.5927-0.3168-2.1531c0,0,0.1102,0.0812,0.3168,0.1347c0,0-0.4408-1.056-0.551-1.5774     c-0.1101-0.5212-0.9366-3.5288-1.2122-4.1303l0.5235,0.1604l-0.7301-0.7887c0,0-1.7081-3.3417-2.5071-3.6893     c-0.7989-0.34752-2.2177-1.4168-2.934-1.55052l0.3994-0.22718c0,0-1.956-0.4546-3.0442-0.1203     c-1.0883,0.3341-3.17613,0.80109-4.38833,0.52039" style="fill:none;stroke:#303030;stroke-width:0.5;stroke-linecap:round;stroke-linejoin:round;stroke-miterlimit:10;"/><path d="     M14.04836,15.16685c0,0-0.7025-1.0292,0-2.0585c0,0,1.5979,0.0936,1.7494,2.0585" style="fill:none;stroke:#303030;stroke-width:0.5;stroke-linecap:round;stroke-linejoin:round;stroke-miterlimit:10;"/><path d="     M15.45336,13.87035c0.0414-0.0268,0.2893-0.1471,0.7025,0.1336c0.4133,0.2807,3.003,1.09608,3.5127,0.9892     c0,0,1.4877-0.3353,1.5841-0.5018c0,0,0.6888-0.30032,0.9642-0.22l-0.2892,0.3742c0,0,1.6667,0.1824,2.0524,0.6392     c0.3858,0.4569,1.6944,1.045,1.9837,1.9941l0.6474,0.7486l-0.5097-0.2407c0,0,0.3995,0.6818,0.3444,1.0828" style="fill:none;stroke:#303030;stroke-width:0.5;stroke-linecap:round;stroke-linejoin:round;stroke-miterlimit:10;"/><path d="     M25.77096,18.62895c0.0275,0.04008,0.3856,0.69508,0.2203,1.1362" style="fill:none;stroke:#303030;stroke-width:0.5;stroke-linecap:round;stroke-linejoin:round;stroke-miterlimit:10;"/><path d="     M22.37866,34.57425c-0.4945,0.2444-3.4467-0.1047-3.4467-0.1047c-0.1458-0.0349-1.2573,0.37348-1.2573,0.37348     c-0.126-0.16758,0.5216-0.67018,0.5216-0.67018c-0.2698-0.0175-1.2052,0.384-1.2052,0.384     c-0.0359-0.6983,1.493-0.9426,1.493-0.9426c0.7376-0.2444,0.3418-2.46122,0.3418-2.46122     c-0.2159-0.40148-0.4857-2.86268-0.4857-2.86268l-0.2698,0.2269v-0.576c-0.3957-1.08222-0.6068-5.5316-0.6068-5.5316" style="fill:none;stroke:#303030;stroke-width:0.5;stroke-linecap:round;stroke-linejoin:round;stroke-miterlimit:10;"/><path d="     M22.54876,29.55075c0,0-0.3051,1.4976-0.0892,1.8292h-0.3958c0,0,0.5202,0.7505,0.485,1.2393l-0.2417,0.10478     c0,0,0.39259,1.07459,0.22089,1.65729" style="fill:none;stroke:#303030;stroke-width:0.5;stroke-linecap:round;stroke-linejoin:round;stroke-miterlimit:10;"/><path d="     M27.83096,27.89745c0,0,0.3545,1.0043,0.3362,1.2175l-0.1677,1.2965l0.3324-0.2131c0,0,0.2013,1.705,0.1281,2.02468     c0,0-0.2196,0.444-0.1464,0.76372c0.0732,0.3196-0.3294,0.7815-0.3294,0.7815" style="fill:none;stroke:#303030;stroke-width:0.5;stroke-linecap:round;stroke-linejoin:round;stroke-miterlimit:10;"/><path d="     M33.12126,27.73085c0,0-0.232,1.7571-0.5066,2.0235h-0.2938c0,0-0.3834,1.634-0.2736,1.9536h-0.3477     c0,0,0.0183,1.5097-0.1831,1.91808c0,0,0,0.88812-0.8602,0.90582h-2.8253" style="fill:none;stroke:#303030;stroke-width:0.5;stroke-linecap:round;stroke-linejoin:round;stroke-miterlimit:10;"/><path d="     M16.46806,21.81095c0,0,1.0069-0.0325,1.1916-0.8305" style="fill:none;stroke:#303030;stroke-width:0.5;stroke-linecap:round;stroke-linejoin:round;stroke-miterlimit:10;"/><path d="     M17.92816,20.09715c0,0,0.0839-0.7329,0-1.1075" style="fill:none;stroke:#303030;stroke-width:0.5;stroke-linecap:round;stroke-linejoin:round;stroke-miterlimit:10;"/><path d="     M18.88486,18.43585c0,0,0.3021,2.5245-0.7553,3.4854" style="fill:none;stroke:#303030;stroke-width:0.5;stroke-linecap:round;stroke-linejoin:round;stroke-miterlimit:10;"/><path d="     M19.40516,22.60525c0,0,0.6378-0.77422,0.6378-1.2096" style="fill:none;stroke:#303030;stroke-width:0.5;stroke-linecap:round;stroke-linejoin:round;stroke-miterlimit:10;"/><path d="M8.55626,19.50435c0,0,0.7383-0.1814,0.4439-1.0297     C9.00016,18.47465,7.96386,18.68103,8.55626,19.50435z" style="fill:#303030;"/><path d="M11.76096,16.60903c0,0,0.1965,0.40542,0.5405,0.50882c0,0-0.606,0.1271-0.7125,0.3655     C11.58896,17.48335,11.34316,17.16545,11.76096,16.60903z" style="fill:#303030;"/><path d="     M14.64036,20.50155c0.0755-0.02452,1.347-0.1222,1.2085-1.33152" style="fill:none;stroke:#303030;stroke-width:0.5;stroke-linecap:round;stroke-linejoin:round;stroke-miterlimit:10;"/><path d="     M18.31436,23.06495c0,0,0.0968,3.17008,0.4256,3.79308" style="fill:none;stroke:#303030;stroke-width:0.5;stroke-linecap:round;stroke-linejoin:round;stroke-miterlimit:10;"/><path d="     M19.16796,25.34925c0,0,0.1741,1.3843,0.3289,1.50878" style="fill:none;stroke:#303030;stroke-width:0.5;stroke-linecap:round;stroke-linejoin:round;stroke-miterlimit:10;"/><path d="     M37.46586,21.62315c0,0-0.8263-0.6726-1.2506-0.9128" style="fill:none;stroke:#303030;stroke-width:0.5;stroke-linecap:round;stroke-linejoin:round;stroke-miterlimit:10;"/><line style="fill:none;stroke:#303030;stroke-width:0.5;stroke-linecap:round;stroke-linejoin:round;stroke-miterlimit:10;" x1="35.52576" x2="35.11926" y1="20.17855" y2="19.97275"/><path d="     M33.46946,25.57795c0,0-1.6035,1.7515-2.2994,1.7649" style="fill:none;stroke:#303030;stroke-width:0.5;stroke-linecap:round;stroke-linejoin:round;stroke-miterlimit:10;"/><path d="     M30.47616,27.27535c0.0119,0-0.396,0-0.396,0" style="fill:none;stroke:#303030;stroke-width:0.5;stroke-linecap:round;stroke-linejoin:round;stroke-miterlimit:10;"/><path d="     M28.81996,28.28075c0,0,0.206,1.3848,0.1913,1.51328" style="fill:none;stroke:#303030;stroke-width:0.5;stroke-linecap:round;stroke-linejoin:round;stroke-miterlimit:10;"/><path d="     M29.01206,30.59415c0.0356,0.0714,0,0.3712,0,0.3712" style="fill:none;stroke:#303030;stroke-width:0.5;stroke-linecap:round;stroke-linejoin:round;stroke-miterlimit:10;"/><path d="     M37.95906,27.14465c0,0,0.3726,1.1181,0.3069,1.5055" style="fill:none;stroke:#303030;stroke-width:0.5;stroke-linecap:round;stroke-linejoin:round;stroke-miterlimit:10;"/><path d="     M37.37716,28.04645c0,0,0.4062,0.9293,0.2902,1.4362" style="fill:none;stroke:#303030;stroke-width:0.5;stroke-linecap:round;stroke-linejoin:round;stroke-miterlimit:10;"/><path d="     M35.38926,29.79403c0,0,0.3627,0.83262,0.6239,0.98582" style="fill:none;stroke:#303030;stroke-width:0.5;stroke-linecap:round;stroke-linejoin:round;stroke-miterlimit:10;"/></g></g></g></svg>