<?xml version="1.0" ?><svg height="60" id="Food_1" viewBox="0 0 60 60" width="60" xmlns="http://www.w3.org/2000/svg"><title/><path d="M39.02526,15.3796C50.32816,17.2137,59,27.326,59,29.661c0,2.3352-8.67181,12.4459-19.97141,14.2798a45.09275,45.09275,0,0,1-10.2151,7.1874,1.60319,1.60319,0,0,1-2.3588-1.4149V42.3899a32.32,32.32,0,0,1-12.0063-8.5518,1.60034,1.60034,0,0,0-2.2768-.1612,48.64255,48.64255,0,0,1-8.8047,5.9716,1.57039,1.57039,0,0,1-1.7043-.1124,1.56819,1.56819,0,0,1-.634-1.5856A28.6603,28.6603,0,0,1,3.623,30.5149a1.56142,1.56142,0,0,0,.02379-1.3818,35.47648,35.47648,0,0,1-2.5977-7.7408,1.56732,1.56732,0,0,1,.6293-1.5921,1.5724,1.5724,0,0,1,1.709-.117,48.42234,48.42234,0,0,1,8.7812,5.9621,1.60539,1.60539,0,0,0,2.2782-.1612,32.32451,32.32451,0,0,1,12.0079-8.5534V9.609a1.60192,1.60192,0,0,1,2.3588-1.4136,45.0166,45.0166,0,0,1,10.2118,7.1842Z" style="fill:#ced8ee;fill-rule:evenodd"/><path d="M33.75,38.08332a30.74849,30.74849,0,0,1-20.58333-7.5C8.17382,33.88113,3.05474,36.71615,1.3333,36.91665c-.62762.0731-.18142,2.248.32926,2.61941a1.5703,1.5703,0,0,0,1.70428.11243,48.64138,48.64138,0,0,0,8.80469-5.97162,1.60037,1.60037,0,0,1,2.27679.16119,32.31942,32.31942,0,0,0,12.00635,8.55182,19.97877,19.97877,0,0,0,7.17029.92261C31.5,46.75,26.43745,48.875,26.43745,48.875c0,.5802.30019,1.91492.79512,2.21368a1.57024,1.57024,0,0,0,1.58087.03949,45.09281,45.09281,0,0,0,10.21509-7.18738c10.97443-1.78113,19.44537-11.34827,19.92529-14.038C52.25,35.16665,47.4345,38.08332,33.75,38.08332Z" style="fill:#2c4b75;fill-rule:evenodd;opacity:0.2"/><path d="M33.75,21.20433a30.74849,30.74849,0,0,0-20.58333,7.5C8.17382,25.40651,3.05474,22.57149,1.3333,22.371c-.62762-.0731-.18142-2.248.32926-2.61941a1.5703,1.5703,0,0,1,1.70428-.11243,48.64137,48.64137,0,0,1,8.80469,5.97162,1.60037,1.60037,0,0,0,2.27679-.16119,32.31942,32.31942,0,0,1,12.00635-8.55182,19.97877,19.97877,0,0,1,7.17029-.92261c-2.125-3.4375-7.18751-5.5625-7.18751-5.5625,0-.5802.30019-1.91492.79512-2.21368a1.57024,1.57024,0,0,1,1.58087-.03949,45.09281,45.09281,0,0,1,10.21509,7.18738C50.003,17.128,58.47391,26.69513,58.95383,29.38489,52.25,24.121,47.4345,21.20433,33.75,21.20433Z" style="fill:#fff;fill-rule:evenodd;opacity:0.5"/><path d="M28.05273,52.32422a2.618,2.618,0,0,1-2.59766-2.61084V43.05713a33.482,33.482,0,0,1-11.7666-8.56934.55233.55233,0,0,0-.417-.21.545.545,0,0,0-.43555.147,50.12779,50.12779,0,0,1-8.99316,6.10352A2.60218,2.60218,0,0,1,.04492,37.76807a29.90023,29.90023,0,0,1,2.68359-7.70068.5594.5594,0,0,0,.00781-.52A36.9609,36.9609,0,0,1,.06641,21.5791a2.57789,2.57789,0,0,1,1.02441-2.5874,2.58312,2.58312,0,0,1,2.77051-.18945,49.90941,49.90941,0,0,1,8.96973,6.09326.60342.60342,0,0,0,.85449-.061,33.52291,33.52291,0,0,1,11.76953-8.5708V9.60889A2.60165,2.60165,0,0,1,29.2832,7.3125a47.13133,47.13133,0,0,1,10.21973,7.13379C50.72168,16.42529,60,26.43457,60,29.66113S50.72266,42.895,39.50586,44.874a47.20963,47.20963,0,0,1-10.2207,7.13623A2.62952,2.62952,0,0,1,28.05273,52.32422ZM13.21484,32.27588c.06543,0,.13184.002.19824.00684a2.54957,2.54957,0,0,1,1.79688.90674A31.34452,31.34452,0,0,0,26.82813,41.4624a.99931.99931,0,0,1,.627.92773v7.32324a.60257.60257,0,0,0,.89063.53125,44.34771,44.34771,0,0,0,9.97559-7.01074,1.00114,1.00114,0,0,1,.54688-.28027C49.95313,41.15479,57.96484,31.35986,58,29.66064,57.96484,27.96191,49.95215,18.166,38.86523,16.3667a1.00114,1.00114,0,0,1-.54687-.28027A44.317,44.317,0,0,0,28.3418,9.07715a.56266.56266,0,0,0-.5957.01416.571.571,0,0,0-.291.51758v7.32178a.99931.99931,0,0,1-.627.92773,31.37087,31.37087,0,0,0-11.62207,8.27539,2.60323,2.60323,0,0,1-3.69531.26416A47.8515,47.8515,0,0,0,2.91113,20.5625a.56542.56542,0,0,0-.64062.04443.56744.56744,0,0,0-.23926.59863,34.9884,34.9884,0,0,0,2.52539,7.51367,2.56592,2.56592,0,0,1-.03809,2.24023,27.89288,27.89288,0,0,0-2.50684,7.17139A.57068.57068,0,0,0,2.251,38.728a.57263.57263,0,0,0,.6416.04053,48.07751,48.07751,0,0,0,8.61914-5.84277A2.52453,2.52453,0,0,1,13.21484,32.27588Z" style="fill:#6d6daa"/><path d="M47.372,31a1.37183,1.37183,0,1,1,1.37109-1.37158A1.37317,1.37317,0,0,1,47.372,31Z" style="fill:#6d6daa"/></svg>