<?xml version="1.0" ?><svg height="60" id="Nature" viewBox="0 0 60 60" width="60" xmlns="http://www.w3.org/2000/svg"><title/><rect height="16.3556" style="fill:#d6b5b0" width="4" x="28" y="42.6444"/><path d="M28,47.643a2.07887,2.07887,0,0,0,.42059-.38318,2.05619,2.05619,0,0,1,3.15881,0A2.07887,2.07887,0,0,0,32,47.643v-4.9986H28Z" style="fill:#750000;opacity:0.2"/><path d="M31.5794,1.74016h0a2.056,2.056,0,0,1,3.4882.55248h0a2.056,2.056,0,0,0,3.0041.97611h0A2.056,2.056,0,0,1,41.2185,4.8721h0A2.056,2.056,0,0,0,43.774,6.72877h0a2.056,2.056,0,0,1,2.4973,2.49729h0a2.056,2.056,0,0,0,1.8566,2.55544h0a2.05606,2.05606,0,0,1,1.6034,3.1468h0a2.056,2.056,0,0,0,.9761,3.0041h0a2.05612,2.05612,0,0,1,.5525,3.4883h0a2.056,2.056,0,0,0,0,3.1587h0a2.056,2.056,0,0,1-.5525,3.4882h0a2.05607,2.05607,0,0,0-.9761,3.0042h0a2.056,2.056,0,0,1-1.6034,3.1467h0a2.056,2.056,0,0,0-1.8566,2.5555h0a2.056,2.056,0,0,1-2.4973,2.4973h0a2.05607,2.05607,0,0,0-2.5555,1.8567h0a2.056,2.056,0,0,1-3.1468,1.6033h0a2.056,2.056,0,0,0-3.0041.9761h0a2.056,2.056,0,0,1-3.4882.5525h0a2.0561,2.0561,0,0,0-3.1588,0h0a2.056,2.056,0,0,1-3.4882-.5525h0a2.056,2.056,0,0,0-3.0041-.9761h0a2.056,2.056,0,0,1-3.1468-1.6033h0a2.05606,2.05606,0,0,0-2.5555-1.8567h0a2.056,2.056,0,0,1-2.4973-2.4973h0a2.056,2.056,0,0,0-1.8566-2.5555h0a2.056,2.056,0,0,1-1.6034-3.1467h0a2.05607,2.05607,0,0,0-.9761-3.0042h0a2.056,2.056,0,0,1-.5525-3.4882h0a2.056,2.056,0,0,0,0-3.1587h0a2.05612,2.05612,0,0,1,.5525-3.4883h0a2.056,2.056,0,0,0,.9761-3.0041h0a2.05606,2.05606,0,0,1,1.6034-3.1468h0a2.056,2.056,0,0,0,1.8566-2.55544h0A2.056,2.056,0,0,1,16.226,6.72876h0a2.056,2.056,0,0,0,2.5555-1.85666h0a2.05605,2.05605,0,0,1,3.1468-1.60336h0a2.056,2.056,0,0,0,3.0041-.97611h0a2.056,2.056,0,0,1,3.4882-.55248h0A2.05609,2.05609,0,0,0,31.5794,1.74016Z" style="fill:#b1f1a8"/><g style="opacity:0.2"><path d="M8.8161,21.50006a2.05,2.05,0,0,0-.076-3.07935c-.02826-.02356-.045-.05341-.07159-.07794a2.0476,2.0476,0,0,0,.07159,3.07794C8.769,21.44482,8.78888,21.47479,8.8161,21.50006Z" style="fill:#2c4b75"/><path d="M10.49432,12.44763a2.05737,2.05737,0,0,0-.45764,1.97351A2.05664,2.05664,0,0,0,10.49432,12.44763Z" style="fill:#2c4b75"/><path d="M49.96326,14.42108a2.05718,2.05718,0,0,0-.45764-1.97345A2.05671,2.05671,0,0,0,49.96326,14.42108Z" style="fill:#2c4b75"/><path d="M50.7074,25.06757a2.05608,2.05608,0,0,0-.97607,3.00421,2.08519,2.08519,0,0,1,.23193.50714,2.04553,2.04553,0,0,1,.74414-.51135,2.04927,2.04927,0,0,0,.624-3.41034A2.0221,2.0221,0,0,1,50.7074,25.06757Z" style="fill:#2c4b75"/><path d="M51.33148,18.34277c-.02661.02454-.04333.05438-.07159.07794a2.05,2.05,0,0,0-.076,3.07935c.02722-.02527.04706-.05524.076-.07935A2.04764,2.04764,0,0,0,51.33148,18.34277Z" style="fill:#2c4b75"/><path d="M49.50562,30.55243a2.02337,2.02337,0,0,1-1.37775.66608A2.056,2.056,0,0,0,46.2713,33.774,2.056,2.056,0,0,1,43.774,36.2713,2.056,2.056,0,0,0,41.21851,38.128a2.056,2.056,0,0,1-3.14679,1.60327,2.0561,2.0561,0,0,0-3.00415.97614,2.056,2.056,0,0,1-3.48816.55249,2.0561,2.0561,0,0,0-3.15881,0,2.056,2.056,0,0,1-3.48822-.55249,2.056,2.056,0,0,0-3.00409-.97614A2.056,2.056,0,0,1,18.78149,38.128,2.05605,2.05605,0,0,0,16.226,36.2713,2.056,2.056,0,0,1,13.7287,33.774a2.056,2.056,0,0,0-1.85663-2.55548,2.02337,2.02337,0,0,1-1.37775-.66608,2.03787,2.03787,0,0,1-.22565.51935,2.056,2.056,0,0,0,1.60339,3.14673A2.056,2.056,0,0,1,13.7287,36.774,2.056,2.056,0,0,0,16.226,39.2713,2.05605,2.05605,0,0,1,18.78149,41.128a2.056,2.056,0,0,0,3.14679,1.60327,2.056,2.056,0,0,1,3.00409.97614,2.056,2.056,0,0,0,3.48822.55249,2.0561,2.0561,0,0,1,3.15881,0,2.056,2.056,0,0,0,3.48816-.55249,2.0561,2.0561,0,0,1,3.00415-.97614A2.056,2.056,0,0,0,41.21851,41.128,2.056,2.056,0,0,1,43.774,39.2713,2.056,2.056,0,0,0,46.2713,36.774a2.056,2.056,0,0,1,1.85657-2.55548,2.056,2.056,0,0,0,1.60345-3.14673A2.03808,2.03808,0,0,1,49.50562,30.55243Z" style="fill:#2c4b75"/><path d="M10.26868,28.07178a2.05608,2.05608,0,0,0-.97607-3.00421,2.0221,2.0221,0,0,1-.624-.41034,2.04925,2.04925,0,0,0,.624,3.41034,2.04455,2.04455,0,0,1,.74408.51135A2.08543,2.08543,0,0,1,10.26868,28.07178Z" style="fill:#2c4b75"/></g><g style="opacity:0.5"><path d="M10.49432,15.44757a2.02368,2.02368,0,0,1,1.37775-.66614A2.056,2.056,0,0,0,13.7287,12.226,2.05607,2.05607,0,0,1,16.226,9.7287a2.056,2.056,0,0,0,2.55548-1.85663,2.05607,2.05607,0,0,1,3.14679-1.60339,2.05594,2.05594,0,0,0,3.00409-.97607,2.056,2.056,0,0,1,3.48822-.55249,2.0561,2.0561,0,0,0,3.15881,0,2.056,2.056,0,0,1,3.48816.55249,2.056,2.056,0,0,0,3.00415.97607,2.05607,2.05607,0,0,1,3.14679,1.60339A2.056,2.056,0,0,0,43.774,9.7287,2.05607,2.05607,0,0,1,46.2713,12.226a2.056,2.056,0,0,0,1.85657,2.55542,2.02382,2.02382,0,0,1,1.37781.66614,2.03749,2.03749,0,0,1,.22565-.51929,2.05608,2.05608,0,0,0-1.60345-3.14679A2.056,2.056,0,0,1,46.2713,9.22607V9.226A2.056,2.056,0,0,0,43.774,6.72876a2.056,2.056,0,0,1-2.55548-1.85669,2.056,2.056,0,0,0-3.14679-1.60333,2.056,2.056,0,0,1-3.00415-.97614,2.056,2.056,0,0,0-3.48816-.55243,2.0561,2.0561,0,0,1-3.15881,0,2.056,2.056,0,0,0-3.48822.55243,2.056,2.056,0,0,1-3.00409.97614,2.056,2.056,0,0,0-3.14679,1.60333A2.05605,2.05605,0,0,1,16.226,6.72876,2.056,2.056,0,0,0,13.7287,9.226v.00006a2.056,2.056,0,0,1-1.85663,2.55542,2.05605,2.05605,0,0,0-1.60339,3.14679A2.03749,2.03749,0,0,1,10.49432,15.44757Z" style="fill:#fff"/><path d="M49.73132,17.92822a2.056,2.056,0,0,0,.97607,3.00415,2.02292,2.02292,0,0,1,.62408.4104,2.04938,2.04938,0,0,0-.62408-3.4104,2.04465,2.04465,0,0,1-.74414-.51129A2.08519,2.08519,0,0,1,49.73132,17.92822Z" style="fill:#fff"/><path d="M10.03668,31.57886a2.05722,2.05722,0,0,0,.45764,1.97357A2.05687,2.05687,0,0,0,10.03668,31.57886Z" style="fill:#fff"/><path d="M8.66858,27.65723c.02655-.02454.04327-.05432.07153-.07788A2.05,2.05,0,0,0,8.8161,24.5c-.02722.02527-.04706.0553-.076.07941A2.04746,2.04746,0,0,0,8.66858,27.65723Z" style="fill:#fff"/><path d="M51.1839,24.5a2.05,2.05,0,0,0,.076,3.07935c.02826.02356.045.05334.07153.07788a2.04751,2.04751,0,0,0-.07153-3.07782C51.231,24.5553,51.21112,24.52527,51.1839,24.5Z" style="fill:#fff"/><path d="M9.2926,20.93237a2.056,2.056,0,0,0,.97607-3.00415,2.08543,2.08543,0,0,1-.232-.50714,2.04442,2.04442,0,0,1-.74408.51129,2.04935,2.04935,0,0,0-.62408,3.4104A2.02292,2.02292,0,0,1,9.2926,20.93237Z" style="fill:#fff"/><path d="M49.50568,33.55243a2.05727,2.05727,0,0,0,.45758-1.97351A2.05691,2.05691,0,0,0,49.50568,33.55243Z" style="fill:#fff"/></g><path d="M32,60H28a1,1,0,0,1-1-1V45a1,1,0,0,1,2,0V58h2V45a1,1,0,0,1,2,0V59A1,1,0,0,1,32,60Z" style="fill:#6d6daa"/><path d="M26.85205,46.00049a3.13384,3.13384,0,0,1-.48877-.03857,3.03044,3.03044,0,0,1-2.35937-1.88281,1.0557,1.0557,0,0,0-1.543-.50146,3.05579,3.05579,0,0,1-4.67725-2.38379,1.05615,1.05615,0,0,0-1.3125-.95312,3.05638,3.05638,0,0,1-3.7124-3.71191,1.05561,1.05561,0,0,0-.95312-1.313,3.05555,3.05555,0,0,1-2.3833-4.67676,1.05633,1.05633,0,0,0-.50146-1.54346A3.0557,3.0557,0,0,1,8.1001,23.811a1.05658,1.05658,0,0,0,0-1.62207,3.05608,3.05608,0,0,1,.8208-5.18506,1.0557,1.0557,0,0,0,.50146-1.543,3.056,3.056,0,0,1,2.38379-4.67725,1.05564,1.05564,0,0,0,.95313-1.3125,3.0554,3.0554,0,0,1,3.71191-3.71143,1.05693,1.05693,0,0,0,1.313-.9541,3.05555,3.05555,0,0,1,4.67676-2.3833,1.05633,1.05633,0,0,0,1.54346-.50146A3.0557,3.0557,0,0,1,29.189,1.1001a1.07888,1.07888,0,0,0,1.62256,0,3.05578,3.05578,0,0,1,5.18457.8208,1.0557,1.0557,0,0,0,1.543.50146,3.056,3.056,0,0,1,4.67725,2.38379,1.05564,1.05564,0,0,0,1.3125.95313,3.05638,3.05638,0,0,1,3.7124,3.71191,1.05561,1.05561,0,0,0,.95313,1.313,3.05555,3.05555,0,0,1,2.3833,4.67676,1.05633,1.05633,0,0,0,.50146,1.54346,3.05562,3.05562,0,0,1,.8208,5.18457,1.05666,1.05666,0,0,0,.00049,1.62256,3.0561,3.0561,0,0,1-.82129,5.18457,1.0557,1.0557,0,0,0-.50146,1.543,3.056,3.056,0,0,1-2.38379,4.67725,1.05564,1.05564,0,0,0-.95312,1.3125,3.05638,3.05638,0,0,1-3.71191,3.7124,1.05612,1.05612,0,0,0-1.313.95313,3.05532,3.05532,0,0,1-4.67676,2.3833,1.05633,1.05633,0,0,0-1.54346.50146,3.0557,3.0557,0,0,1-5.18457.8208,1.07959,1.07959,0,0,0-1.62256.00049A3.02658,3.02658,0,0,1,26.85205,46.00049Zm-3.83057-4.58594a3.06058,3.06058,0,0,1,2.83936,1.92139,1.05581,1.05581,0,0,0,1.791.28369,3.05774,3.05774,0,0,1,4.6958-.00049,1.05541,1.05541,0,0,0,1.791-.2832,3.05663,3.05663,0,0,1,4.46582-1.45068,1.05533,1.05533,0,0,0,1.61572-.82373A3.05622,3.05622,0,0,1,44.019,38.30225a1.05619,1.05619,0,0,0,1.28271-1.2832,3.05569,3.05569,0,0,1,2.75977-3.79834,1.05629,1.05629,0,0,0,.82373-1.61621,3.056,3.056,0,0,1,1.45068-4.46533,1.05581,1.05581,0,0,0,.28369-1.791,3.05679,3.05679,0,0,1,0-4.69531,1.056,1.056,0,0,0-.28369-1.7915,3.05663,3.05663,0,0,1-1.45068-4.46582,1.05579,1.05579,0,0,0-.82373-1.61572A3.05571,3.05571,0,0,1,45.30225,8.981,1.05656,1.05656,0,0,0,44.019,7.69824,3.05569,3.05569,0,0,1,40.2207,4.93848a1.05629,1.05629,0,0,0-1.61621-.82373,3.056,3.056,0,0,1-4.46533-1.45068,1.05581,1.05581,0,0,0-1.791-.28369h-.00049a3.05592,3.05592,0,0,1-4.69531,0,1.05573,1.05573,0,0,0-1.791.28369,3.05663,3.05663,0,0,1-4.46582,1.45068,1.05579,1.05579,0,0,0-1.61572.82373A3.057,3.057,0,0,1,15.981,7.69873,1.05559,1.05559,0,0,0,14.69824,8.981a3.05569,3.05569,0,0,1-2.75977,3.79834,1.05629,1.05629,0,0,0-.82373,1.61621,3.056,3.056,0,0,1-1.45068,4.46533,1.0565,1.0565,0,0,0-.28369,1.792,3.0567,3.0567,0,0,1,.00049,4.69482,1.05541,1.05541,0,0,0,.2832,1.791,3.05663,3.05663,0,0,1,1.45068,4.46582,1.05579,1.05579,0,0,0,.82373,1.61572A3.05571,3.05571,0,0,1,14.69775,37.019a1.05619,1.05619,0,0,0,1.2832,1.28271,3.0562,3.0562,0,0,1,3.79834,2.75977,1.05583,1.05583,0,0,0,1.61621.82373A3.04882,3.04882,0,0,1,23.02148,41.41455ZM31.57959,1.74023h0Z" style="fill:#6d6daa"/><path d="M38.73633,12.1416a.99989.99989,0,0,1-.99219-.88916,1.05564,1.05564,0,0,0-1.65137-.75,3.05694,3.05694,0,0,1-4.52637-1.25,1.05557,1.05557,0,0,0-1.80176-.20312,1.00012,1.00012,0,0,1-1.59277-1.21,3.05586,3.05586,0,0,1,5.21631.58789,1.05656,1.05656,0,0,0,1.56445.43164,3.0557,3.0557,0,0,1,4.77881,2.17188.99943.99943,0,0,1-.88281,1.10449A.96813.96813,0,0,1,38.73633,12.1416Z" style="fill:#6d6daa"/><path d="M23.66357,38.35449a3.06784,3.06784,0,0,1-3.03906-2.68506,1.00021,1.00021,0,1,1,1.98535-.24512,1.05646,1.05646,0,0,0,1.66016.73145,1,1,0,0,1,1.15918,1.62988A3.04106,3.04106,0,0,1,23.66357,38.35449Z" style="fill:#6d6daa"/><path d="M33.55713,24.37744a3.03622,3.03622,0,0,1-1.85938-.63916,1.00019,1.00019,0,1,1,1.22168-1.584,1.056,1.056,0,0,0,1.687-.66553.99985.99985,0,1,1,1.97363.32178,3.03,3.03,0,0,1-1.89307,2.3501A3.07122,3.07122,0,0,1,33.55713,24.37744Z" style="fill:#6d6daa"/><path d="M42.01416,30.8208a3.16936,3.16936,0,0,1-.4585-.03369,1,1,0,1,1,.293-1.97852,1.05631,1.05631,0,0,0,1.14795-1.40479,1,1,0,1,1,1.87988-.68262,3.057,3.057,0,0,1-2.8623,4.09961Z" style="fill:#6d6daa"/><path d="M16.6582,21.541a1.02245,1.02245,0,0,1-.19092-.01807,1.00063,1.00063,0,0,1-.792-1.17187,3.05577,3.05577,0,0,1,4.937-1.78418.99995.99995,0,0,1-1.26758,1.54688,1.0555,1.0555,0,0,0-1.70557.61719A1.0001,1.0001,0,0,1,16.6582,21.541Z" style="fill:#6d6daa"/><path d="M19.83572,28.99887A3.08279,3.08279,0,0,0,23,25.99975c.00018-.00674-.00062-.01326-.00047-.02a5.05685,5.05685,0,0,1-6.16137-.16508l-.00154.01994A3.08279,3.08279,0,0,0,19.83572,28.99887Z" style="fill:#2c4b75;opacity:0.200000002980232"/><path d="M25.00025,17.1842a3.08279,3.08279,0,0,0,3.16425-2.99912c.00018-.00674-.00062-.01326-.00047-.02A5.05685,5.05685,0,0,1,22.00267,14l-.00154.01994A3.08279,3.08279,0,0,0,25.00025,17.1842Z" style="fill:#2c4b75;opacity:0.200000002980232"/><path d="M32.56513,33.19512a5.87072,5.87072,0,0,1-3.29318-1.87248,3.116,3.116,0,0,0-.08334.30505c-.41321,1.96552,1.12975,3.9537,3.44629,4.44071s4.52946-.71157,4.94268-2.67709a3.15964,3.15964,0,0,0-.0499-1.4906A5.16675,5.16675,0,0,1,32.56513,33.19512Z" style="fill:#2c4b75;opacity:0.200000002980232"/><path d="M42.94375,20.87a4.053,4.053,0,0,0,2.90962-4.93846l-.00785-.0251A6.64838,6.64838,0,0,1,38,17.93464l.0053.02576A4.053,4.053,0,0,0,42.94375,20.87Z" style="fill:#2c4b75;opacity:0.200000002980232"/></svg>