<?xml version="1.0" ?><svg height="60" id="Nature" viewBox="0 0 60 60" width="60" xmlns="http://www.w3.org/2000/svg"><title/><polygon points="32 30.572 32 59 28 59 28 32.58 32 30.572" style="fill:#d6b5b0"/><path d="M32,30.5722,28,32.58v7.30682a4.9969,4.9969,0,0,0,3.6795-3.174c.09955.08911.21429.15955.3205.24084Z" style="fill:#750000;opacity:0.2"/><path d="M48.85979,41.1402A2.973,2.973,0,0,0,44,39.7786a2.97534,2.97534,0,0,0-4.88451,1.441,3.00354,3.00354,0,1,0,.2524,5.436,3.98574,3.98574,0,0,0,7.2642,0A2.96663,2.96663,0,0,0,48,47a2.99178,2.99178,0,0,0,.85979-5.8598Z" style="fill:#b1f1a8"/><path d="M48,44a2.96648,2.96648,0,0,1-1.36792-.34442,3.9857,3.9857,0,0,1-7.26416,0A2.94931,2.94931,0,0,1,35.41608,42.5,2.96952,2.96952,0,0,0,35,44a3,3,0,0,0,3,3,2.96648,2.96648,0,0,0,1.36792-.34442,3.9857,3.9857,0,0,0,7.26416,0A2.96648,2.96648,0,0,0,48,47a3,3,0,0,0,3-3,2.94109,2.94109,0,0,0-.41528-1.50153A2.98713,2.98713,0,0,1,48,44Z" style="fill:#2c4b75;opacity:0.2"/><path d="M20.24149,40.0244a2.9768,2.9768,0,0,0-5.126,1.1952,2.99153,2.99153,0,1,0-1.9753,5.6402,2.987,2.987,0,0,0,5.3329.8352,3.99213,3.99213,0,1,0,1.7684-7.6706Z" style="fill:#b1f1a8"/><path d="M20,45a3.9814,3.9814,0,0,1-1.52692-.305,2.987,2.987,0,0,1-5.33289-.83521,3.01666,3.01666,0,0,1-1.725-1.35828,2.96209,2.96209,0,0,0,1.725,4.35828,2.987,2.987,0,0,0,5.33289.83521,3.997,3.997,0,0,0,5.23181-5.2A3.9963,3.9963,0,0,1,20,45Z" style="fill:#2c4b75;opacity:0.2"/><path d="M55,21a4.99155,4.99155,0,0,0-2.242-4.1664A10.00532,10.00532,0,0,0,44.95,9.19327a6.992,6.992,0,0,0-11.31351-4.6615,7.99482,7.99482,0,0,0-14.4038,2.58331A6.96041,6.96041,0,0,0,11.069,13.069,6.99091,6.99091,0,0,0,9.0337,26.3335C9.0155,26.5539,9,26.775,9,27a7.99213,7.99213,0,0,0,12.324,6.7242,4.97482,4.97482,0,0,0,9.35549-.0113,4.96491,4.96491,0,0,0,7.9608-1.8736,7.98634,7.98634,0,0,0,14.1375-6.6836A4.99314,4.99314,0,0,0,55,21Z" style="fill:#b1f1a8"/><g style="opacity:0.5"><path d="M11.069,16.069a6.9604,6.9604,0,0,1,8.1637-5.95392A7.99483,7.99483,0,0,1,33.63647,7.53174,6.992,6.992,0,0,1,44.95,12.19324a10.00527,10.00527,0,0,1,7.808,7.64032,5.00991,5.00991,0,0,1,2.00281,2.667A4.95437,4.95437,0,0,0,52.758,16.83362,10.00526,10.00526,0,0,0,44.95,9.19324a6.992,6.992,0,0,0-11.31354-4.6615A7.99483,7.99483,0,0,0,19.23267,7.11505,6.9604,6.9604,0,0,0,11.069,13.069,6.91165,6.91165,0,0,0,5.17426,21.4729,6.99917,6.99917,0,0,1,11.069,16.069Z" style="fill:#fff"/><path d="M52.77777,28.15564c.03.12708.04565.25916.07013.38824.0321-.16425.05432-.33185.07623-.49951C52.87445,28.08038,52.8288,28.12146,52.77777,28.15564Z" style="fill:#fff"/></g><g style="opacity:0.2"><path d="M45,32a7.97849,7.97849,0,0,1-6.35968-3.16071,4.96492,4.96492,0,0,1-7.96082,1.8736,4.97484,4.97484,0,0,1-9.35553.01129A7.99209,7.99209,0,0,1,9,24c0-.225.0155-.44611.03369-.6665a7.001,7.001,0,0,1-3.85944-4.8606,6.95715,6.95715,0,0,0,3.85944,7.8606C9.0155,26.55389,9,26.775,9,27a7.99209,7.99209,0,0,0,12.324,6.72418,4.97484,4.97484,0,0,0,9.35553-.01129,4.96492,4.96492,0,0,0,7.96082-1.8736A7.99288,7.99288,0,0,0,53,27a7.78686,7.78686,0,0,0-.1521-1.45612A8.00026,8.00026,0,0,1,45,32Z" style="fill:#2c4b75"/><path d="M52.77777,22.1557a7.56219,7.56219,0,0,1,.14636,2.88873,4.93993,4.93993,0,0,0,1.83661-5.54382A5.0073,5.0073,0,0,1,52.77777,22.1557Z" style="fill:#2c4b75"/></g><path d="M32,60H28a1,1,0,0,1-1-1V37a1,1,0,0,1,2,0V58h2V34.99219a1,1,0,0,1,2,0V59A1,1,0,0,1,32,60Z" style="fill:#6d6daa"/><path d="M32.17236,49.82861a1.00005,1.00005,0,0,1-.53271-1.84717l3.96045-2.48535a1.00022,1.00022,0,0,1,1.06348,1.69434l-3.96045,2.48535A.9976.9976,0,0,1,32.17236,49.82861Z" style="fill:#6d6daa"/><path d="M28,47.813a.99824.99824,0,0,1-.35352-.06494l-4.19287-1.58447a1.00011,1.00011,0,1,1,.707-1.87109L28.35352,45.877A1.00035,1.00035,0,0,1,28,47.813Z" style="fill:#6d6daa"/><path d="M43,50a5.00721,5.00721,0,0,1-4.07275-2.11426A3.81481,3.81481,0,0,1,38,48a4,4,0,0,1,0-8,3.90421,3.90421,0,0,1,.52832.03613A3.99684,3.99684,0,0,1,42,38a3.9555,3.9555,0,0,1,2,.5459,3.96629,3.96629,0,0,1,5.63623,1.81787A3.96141,3.96141,0,0,1,52,44a4.00458,4.00458,0,0,1-4,4,3.81481,3.81481,0,0,1-.92725-.11426A5.00721,5.00721,0,0,1,43,50Zm-3.63232-4.34424a.99914.99914,0,0,1,.90967.58447,2.98609,2.98609,0,0,0,5.44531,0,.99973.99973,0,0,1,1.36816-.47314,1.98807,1.98807,0,1,0,1.481-3.66943,1.00011,1.00011,0,0,1-.66943-.66943,1.97275,1.97275,0,0,0-3.23291-.90625,1.00014,1.00014,0,0,1-1.33887,0A1.96973,1.96973,0,0,0,42,40a1.9975,1.9975,0,0,0-1.91895,1.481.99987.99987,0,0,1-1.3374.667,1.994,1.994,0,1,0,.16553,3.61914A1.00206,1.00206,0,0,1,39.36768,45.65576Z" style="fill:#6d6daa"/><path d="M16,50a3.96141,3.96141,0,0,1-3.63623-2.36377A3.96141,3.96141,0,0,1,10,44a4.00458,4.00458,0,0,1,4-4,3.90421,3.90421,0,0,1,.52832.03613,3.96926,3.96926,0,0,1,6.17383-.96973,4.99153,4.99153,0,1,1-1.90137,9.78711A3.99641,3.99641,0,0,1,16,50Zm-2-8a1.99189,1.99189,0,0,0-.57178,3.90234,1.00011,1.00011,0,0,1,.66943.66943,1.98693,1.98693,0,0,0,3.55078.55713,1.00313,1.00313,0,0,1,1.208-.35791A2.96786,2.96786,0,0,0,20,47a2.99126,2.99126,0,0,0,.18115-5.97754,1.002,1.002,0,0,1-.68945-.33643A1.97012,1.97012,0,0,0,18,40a1.9975,1.9975,0,0,0-1.91895,1.481.99987.99987,0,0,1-1.3374.667A1.993,1.993,0,0,0,14,42Z" style="fill:#6d6daa"/><path d="M26,38a6.01041,6.01041,0,0,1-5.11035-2.88818A8.99277,8.99277,0,0,1,8,27c0-.02637,0-.05322.00049-.07959A7.98981,7.98981,0,0,1,10.209,12.209a7.97,7.97,0,0,1,8.30566-6.19092,8.99492,8.99492,0,0,1,15.33545-2.856A7.8962,7.8962,0,0,1,38,2a7.992,7.992,0,0,1,7.83008,6.37109,10.98315,10.98315,0,0,1,7.813,7.86572,5.99384,5.99384,0,0,1,.23779,9.3374A8.79674,8.79674,0,0,1,54,27a9.01047,9.01047,0,0,1-9,9,8.91022,8.91022,0,0,1-6.167-2.45264A5.95384,5.95384,0,0,1,31.05029,35.208,6.00692,6.00692,0,0,1,26,38Zm-4.67578-5.27588a1.01051,1.01051,0,0,1,.31689.05127,1.00031,1.00031,0,0,1,.62109.60254,3.97487,3.97487,0,0,0,7.47852-.00928,1.00015,1.00015,0,0,1,1.606-.40088,3.96448,3.96448,0,0,0,6.36377-1.49707,1,1,0,0,1,1.7251-.2373A6.99309,6.99309,0,0,0,52,27a7.05515,7.05515,0,0,0-.19531-1.61426,1.00061,1.00061,0,0,1,.4165-1.061,3.99422,3.99422,0,0,0-.01611-6.65771,1.00277,1.00277,0,0,1-.42383-.61768,8.98213,8.98213,0,0,0-7.0249-6.875,1.00025,1.00025,0,0,1-.7998-.8667A5.9921,5.9921,0,0,0,38,4a5.92916,5.92916,0,0,0-3.73877,1.313,1.01527,1.01527,0,0,1-.77539.20752,1.00207,1.00207,0,0,1-.67822-.4292A6.99445,6.99445,0,0,0,20.20508,7.3501a.996.996,0,0,1-1.14746.74951,5.96063,5.96063,0,0,0-6.99756,5.10156.99977.99977,0,0,1-.85889.85889A5.991,5.991,0,0,0,9.4585,25.42822a.99964.99964,0,0,1,.57178.98682C10.01465,26.6084,10,26.80273,10,27a6.99227,6.99227,0,0,0,10.78223,5.88379A1,1,0,0,1,21.32422,32.72412Z" style="fill:#6d6daa"/><path d="M45.69678,18.771a1.015,1.015,0,0,1-.26758-.03662,1.00055,1.00055,0,0,1-.69678-1.231,1.05609,1.05609,0,0,0-1.25293-1.31152,3.05512,3.05512,0,0,1-3.73486-2.84473A1.05612,1.05612,0,0,0,38.147,12.4873a1.0001,1.0001,0,1,1-1.02637-1.7168,3.05648,3.05648,0,0,1,4.62207,2.48877,1.05607,1.05607,0,0,0,1.29053.9834,3.05581,3.05581,0,0,1,3.627,3.79492A1.00157,1.00157,0,0,1,45.69678,18.771Z" style="fill:#6d6daa"/><path d="M16.66357,30.35449a3.06784,3.06784,0,0,1-3.03906-2.68506,1.00021,1.00021,0,1,1,1.98535-.24512,1.05646,1.05646,0,0,0,1.66016.73145,1,1,0,0,1,1.15918,1.62988A3.04106,3.04106,0,0,1,16.66357,30.35449Z" style="fill:#6d6daa"/><path d="M45.01416,30.8208a3.16936,3.16936,0,0,1-.4585-.03369,1,1,0,1,1,.293-1.97852,1.05631,1.05631,0,0,0,1.14795-1.40479,1,1,0,1,1,1.87988-.68262,3.057,3.057,0,0,1-2.8623,4.09961Z" style="fill:#6d6daa"/><path d="M26.49072,22.19629a1.0008,1.0008,0,0,1-.9165-1.3999,3.05632,3.05632,0,0,1,5.20752-.66553,1.00023,1.00023,0,0,1-1.57422,1.23438,1.05544,1.05544,0,0,0-1.79932.23A1.00141,1.00141,0,0,1,26.49072,22.19629Z" style="fill:#6d6daa"/><path d="M41.49072,45.19629a1.0008,1.0008,0,0,1-.9165-1.3999,3.05632,3.05632,0,0,1,5.20752-.66553,1.00023,1.00023,0,0,1-1.57422,1.23438,1.05544,1.05544,0,0,0-1.79932.23A1.00141,1.00141,0,0,1,41.49072,45.19629Z" style="fill:#6d6daa"/><path d="M20.24219,46.11475a.99957.99957,0,0,1-.981-1.19971,1.05566,1.05566,0,0,0-1.34082-1.22119,1,1,0,1,1-.58008-1.91406,3.05568,3.05568,0,0,1,3.88086,3.53467A1.00071,1.00071,0,0,1,20.24219,46.11475Z" style="fill:#6d6daa"/><path d="M16.6582,14.541a1.02245,1.02245,0,0,1-.19092-.01807,1.00063,1.00063,0,0,1-.792-1.17187,3.05577,3.05577,0,0,1,4.937-1.78418.99995.99995,0,0,1-1.26758,1.54688,1.0555,1.0555,0,0,0-1.70557.61719A1.0001,1.0001,0,0,1,16.6582,14.541Z" style="fill:#6d6daa"/><path d="M30.16457,14.99648A4.00164,4.00164,0,0,0,33.99648,10.832l-.00238-.02585a6.56409,6.56409,0,0,1-7.99379.33247c.00032.00875-.00059.01722-.00022.026A4.00164,4.00164,0,0,0,30.16457,14.99648Z" style="fill:#2c4b75;opacity:0.200000002980232"/><path d="M16.96555,22.85894a4.00164,4.00164,0,0,0,4.913-2.80869l.00556-.02536A6.19913,6.19913,0,0,1,17.667,20.285a6.19913,6.19913,0,0,1-3.50206-2.36379l-.00807.02468A4.00164,4.00164,0,0,0,16.96555,22.85894Z" style="fill:#2c4b75;opacity:0.200000002980232"/><path d="M25.82841,27.538A4.82215,4.82215,0,0,1,23.12343,26a2.55944,2.55944,0,0,0-.06845.25057,3.287,3.287,0,0,0,2.83075,3.64756,3.287,3.287,0,0,0,4.05986-2.19894,2.5953,2.5953,0,0,0-.041-1.22437A4.24392,4.24392,0,0,1,25.82841,27.538Z" style="fill:#2c4b75;opacity:0.200000002980232"/><path d="M42.05154,22.7511A4.82215,4.82215,0,0,1,39,22.14229a2.55945,2.55945,0,0,0,.01386.25938,3.287,3.287,0,0,0,3.83466,2.57161,3.287,3.287,0,0,0,3.16178-3.36467,2.5953,2.5953,0,0,0-.42415-1.14928A4.24392,4.24392,0,0,1,42.05154,22.7511Z" style="fill:#2c4b75;opacity:0.200000002980232"/></svg>